<?xml version="1.0" standalone="no"?>
<!DOCTYPE svg PUBLIC "-//W3C//DTD SVG 1.1//EN" "http://www.w3.org/Graphics/SVG/1.1/DTD/svg11.dtd" >
<svg xmlns="http://www.w3.org/2000/svg">
<metadata>
Created by FontForge 20120731 at Tue Jun 20 10:01:03 2017
 By admin
</metadata>
<defs>
<font id="iconfont" horiz-adv-x="1024" >
  <font-face 
    font-family="iconfont"
    font-weight="500"
    font-stretch="normal"
    units-per-em="1024"
    panose-1="2 0 6 3 0 0 0 0 0 0"
    ascent="896"
    descent="-128"
    x-height="792"
    bbox="-1 -212 1025 896.455"
    underline-thickness="0"
    underline-position="0"
    unicode-range="U+0078-EA16"
  />
<missing-glyph 
 />
    <glyph glyph-name=".notdef" 
 />
    <glyph glyph-name=".notdef" 
 />
    <glyph glyph-name=".null" horiz-adv-x="0" 
 />
    <glyph glyph-name="nonmarkingreturn" horiz-adv-x="341" 
 />
    <glyph glyph-name="x" unicode="x" horiz-adv-x="1001" 
d="M281 543q-27 -1 -53 -1h-83q-18 0 -36.5 -6t-32.5 -18.5t-23 -32t-9 -45.5v-76h912v41q0 16 -0.5 30t-0.5 18q0 13 -5 29t-17 29.5t-31.5 22.5t-49.5 9h-133v-97h-438v97zM955 310v-52q0 -23 0.5 -52t0.5 -58t-10.5 -47.5t-26 -30t-33 -16t-31.5 -4.5q-14 -1 -29.5 -0.5
t-29.5 0.5h-32l-45 128h-439l-44 -128h-29h-34q-20 0 -45 1q-25 0 -41 9.5t-25.5 23t-13.5 29.5t-4 30v167h911zM163 247q-12 0 -21 -8.5t-9 -21.5t9 -21.5t21 -8.5q13 0 22 8.5t9 21.5t-9 21.5t-22 8.5zM316 123q-8 -26 -14 -48q-5 -19 -10.5 -37t-7.5 -25t-3 -15t1 -14.5
t9.5 -10.5t21.5 -4h37h67h81h80h64h36q23 0 34 12t2 38q-5 13 -9.5 30.5t-9.5 34.5q-5 19 -11 39h-368zM336 498v228q0 11 2.5 23t10 21.5t20.5 15.5t34 6h188q31 0 51.5 -14.5t20.5 -52.5v-227h-327z" />
    <glyph glyph-name="bbgjiushui" unicode="&#xe694;" 
d="M302 264h-60q-12 0 -21 -8.5t-9 -21t9 -21.5t21 -9h60q13 0 21.5 9t8.5 21.5t-8.5 21t-21.5 8.5zM302 144h-60q-12 0 -21 -8.5t-9 -21t9 -21.5t21 -9h60q13 0 21.5 9t8.5 21.5t-8.5 21t-21.5 8.5zM332 804q0 25 -17.5 42.5t-42.5 17.5t-42.5 -17.5t-17.5 -42.5v-60h120
v60zM392 564h-60v120h-120v-120h-60q-25 0 -42.5 -17.5t-17.5 -42.5v-540q0 -25 17.5 -42.5t42.5 -17.5h240q25 0 42.5 17.5t17.5 42.5v540q0 25 -17.5 42.5t-42.5 17.5zM392 24q0 -25 -17.5 -42.5t-42.5 -17.5h-120q-25 0 -42.5 17.5t-17.5 42.5v300q0 25 17.5 42.5
t42.5 17.5h120q25 0 42.5 -17.5t17.5 -42.5v-300zM932 354v240q0 9 -3 30h-414q-3 -21 -3 -30v-240q0 -79 51.5 -137.5t128.5 -69.5v-183h-90q-12 0 -21 -8.5t-9 -21t9 -21.5t21 -9h240q13 0 21.5 9t8.5 21.5t-8.5 21t-21.5 8.5h-90v183q77 11 128.5 69.5t51.5 137.5z
M681 246q-6 0 -12 2q-43 16 -70 54.5t-27 85.5q0 12 2 24v0q2 11 10.5 18.5t19.5 7.5q12 0 21 -9t9 -21v-6v0q-2 -7 -2 -14q0 -16 8 -35v0v0q6 -14 17 -25l5 -5q9 -8 21 -14q1 -1 3 -2t3 -2q1 0 1.5 -0.5t1.5 -0.5q19 -7 19 -28q0 -13 -8.5 -21.5t-21.5 -8.5z" />
    <glyph glyph-name="llhomesearch" unicode="&#xe603;" 
d="M974 -6l-170 167q87 115 87 258q0 116 -57.5 215t-156.5 156t-215 57t-215 -57t-156.5 -156t-57.5 -215.5t57.5 -215t156.5 -156t215 -57.5q162 0 284 108l170 -167q13 -12 30.5 -11.5t29.5 13.5t11.5 30.5t-13.5 30.5v0zM462 66q-96 0 -177.5 47t-128.5 128.5t-47 177.5
t47 177t128.5 128.5t177.5 47.5t177.5 -47.5t128.5 -128.5t47 -177t-47 -177.5t-128.5 -128.5t-177.5 -47z" />
    <glyph glyph-name="gou" unicode="&#xe666;" 
d="M862 708l-502 -501l-198 198q-22 22 -53.5 22t-53.5 -22.5t-22 -54t22 -53.5l237 -237q24 -24 69 -22q44 -2 68 22l540 540q22 23 22 54.5t-22 53.5t-53.5 22t-53.5 -22z" />
    <glyph glyph-name="xiala" unicode="&#xe635;" 
d="M1014.5 650.5q-10.5 10.5 -25.5 10.5t-25 -11l-454 -453l-451 451q-10 10 -25 10t-25 -10t-10 -25t10 -25l476 -477q11 -10 25.5 -10t25.5 11l478 478q11 10 11 25t-10.5 25.5z" />
    <glyph glyph-name="fenlei" unicode="&#xe66f;" 
d="M86 763q25 3 44 -13t19 -41q0 -24 -17 -40t-39 -17q-23 0 -39 15.5t-17 37.5t12.5 38.5t36.5 19.5v0zM233 736h752v-55h-753v52q0 3 1 3v0zM85 428q22 3 39 -8q9 -6 17 -19.5t8 -26.5q0 -26 -17 -41.5t-39 -15.5q-23 0 -39 15.5t-17 36.5q-1 24 12.5 40t35.5 19v0z
M233 401h752v-56h-753v53q0 3 1 3v0zM87 121q25 3 43.5 -13.5t18.5 -40.5q0 -26 -18 -42t-41 -15t-38 18t-15 39q0 23 14 37.5t36 16.5v0zM233 94h752v-56h-753v53q0 3 1 3v0v0zM233 94z" />
    <glyph glyph-name="iconfont19" unicode="&#xe6ed;" 
d="M297.5 -85q9.5 0 17 7t7.5 17v512q0 10 -7.5 17t-17 7t-16.5 -7t-7 -17v-512q0 -10 7 -17t16.5 -7zM512 -85q10 0 17 7t7 17v512q0 10 -7 17t-17 7t-17 -7t-7 -17v-512q0 -10 7 -17t17 -7zM726.5 -85q9.5 0 16.5 7t7 17v512q0 10 -7 17t-16.5 7t-17 -7t-7.5 -17v-512
q0 -10 7.5 -17t17 -7zM1000 669h-184v111q0 13 -9.5 22.5t-22.5 9.5h-544q-13 0 -22.5 -9.5t-9.5 -22.5v-111h-184q-10 0 -17 -7t-7 -17t7 -17t17 -7h56v-801q0 -13 9.5 -22.5t22.5 -9.5h800q13 0 22.5 9.5t9.5 22.5v801h56q10 0 17 7t7 17t-7 17t-17 7zM256 756q0 7 4 11
t9 4.5t15 0.5h4h448h4q10 0 15 -0.5t9 -4.5t4 -11v-80h-512v80zM896 -135q0 -12 -8.5 -20.5t-20.5 -8.5h-710q-12 0 -20.5 8.5t-8.5 20.5v756h768v-756v0z" />
    <glyph glyph-name="iconfontwancheng" unicode="&#xe606;" 
d="M507 890l5 -477l192 194q3 2 7 5.5t14.5 4t17.5 -11.5l51 -49q2 -2 4.5 -5t3 -11.5t-7.5 -15.5l-139 -140l363 -19q-3 1 0.5 17.5t-2 46.5t-10 68t-22.5 81t-40 85.5t-63 82.5t-90.5 71t-123 50.5t-160.5 22.5zM1018 365l-363 19l-143 -142v-364h16.5t43 4t64.5 11
t76 23.5t82 39.5t78 61t69.5 85t50.5 115t26 148zM512 -122v364l-81 -82q-2 -2 -5.5 -5t-14 -3.5t-21.5 8.5l-213 213l-171 17q-1 -6 -1 -16.5t2.5 -43.5t9 -65t22.5 -76t39.5 -82t62.5 -78.5t89 -70.5t122.5 -52t159.5 -28zM6 390l171 -17q-2 2 -5 4.5t-3.5 10.5t8.5 16
l62 61q10 11 20 0l151 -151l102 99l-5 477h-16.5t-42 -4.5t-62.5 -12t-74 -24.5t-80.5 -40.5t-77 -62.5t-69 -87t-51 -117.5t-28.5 -151.5zM495 890v-493l36 35l18 456z" />
    <glyph glyph-name="212102" unicode="&#xe609;" 
d="M512 21q-8 0 -15 3l-410 181q-15 6 -20.5 21t1 29.5t21 20t29.5 -0.5l394 -174l394 174q15 6 29.5 0.5t21 -20t1 -29.5t-20.5 -21l-409 -181q-8 -3 -16 -3zM512 322q-8 0 -15 3l-410 181q-15 6 -20.5 21t1 29.5t21 20t29.5 -0.5l394 -174l394 174q15 7 29.5 1t21 -20.5
t1 -29.5t-20.5 -21l-409 -181q-8 -3 -16 -3z" />
    <glyph glyph-name="gouwuche" unicode="&#xe726;" 
d="M995 662.5q-11 14.5 -29 14.5h-767l-32 153q-3 13 -13 21t-23 8h-94q-16 0 -26.5 -10.5t-10.5 -25.5t10.5 -26t26.5 -11h64l140 -666q2 -12 12.5 -20.5t23.5 -8.5h550q16 0 26.5 11t10.5 26t-10.5 26t-26.5 11h-521l-23 109h595q12 0 22 7.5t13 19.5l88 330q5 17 -6 31.5
zM850 347h-582l-54 256h704zM347.5 55q-37.5 0 -64.5 -27t-27 -64.5t27 -64.5t64.5 -27t64.5 27t27 64.5t-27 64.5t-64.5 27zM347.5 -73q-15.5 0 -26 10.5t-10.5 26t10.5 26t26 10.5t26 -10.5t10.5 -26t-10.5 -26t-26 -10.5zM750 55q-38 0 -65 -27t-27 -64.5t27 -64.5
t65 -27t64.5 27t26.5 64.5t-26.5 64.5t-64.5 27zM750 -73q-15 0 -26 10.5t-11 26t11 26t26 10.5t25.5 -10.5t10.5 -26t-10.5 -26t-25.5 -10.5z" />
    <glyph glyph-name="shouji" unicode="&#xe626;" 
d="M787 -212h-550q-43 0 -76 33t-33 76v806q0 43 33 76t76 33h550q43 0 76 -33t33 -76v-806q0 -43 -33 -76t-76 -33zM237 767q-25 0 -44.5 -18t-19.5 -46v-806q0 -25 18 -44.5t46 -19.5h550q25 0 44.5 18t19.5 46v806q0 25 -18 44.5t-46 19.5h-550zM512 -65q-43 0 -76 33
t-33 76t33 76t76 33t76 -33t33 -76t-33 -76t-76 -33zM512 108q-25 0 -44.5 -18t-19.5 -46q0 -29 17.5 -46.5t46.5 -17.5q25 0 44.5 18t19.5 46t-19.5 46t-44.5 18zM384 620h256v-45h-256v45z" />
    <glyph glyph-name="jinkoulingshi" unicode="&#xe669;" 
d="M811 506q151 -5 183 -5q25 1 29 17.5t-7.5 33t-24.5 20.5q-32 9 -54.5 21t-32.5 25.5t-13.5 21t-5.5 17.5v3t-2.5 13.5t-5 20.5t-7.5 19t-11.5 17.5t-17.5 11.5t-19 7.5t-20.5 5t-13.5 2.5h-3q-10 2 -17.5 5.5t-21 13.5t-25.5 32.5t-21 54.5q-3 10 -14 19t-23.5 13
t-22.5 -3t-11 -26q0 -32 5 -183q61 -22 108 -69t69 -108zM219 268q-152 5 -183 5q-25 -1 -29 -17.5t7.5 -33t24.5 -20.5q32 -9 54.5 -21t32.5 -25.5t13.5 -21t5.5 -17.5v-3t2.5 -13.5t5 -20.5t7.5 -19t11.5 -17.5t17.5 -11.5t19 -7.5t20.5 -5t13.5 -2.5h3q10 -2 17.5 -5.5
t21 -13.5t25.5 -32.5t21 -54.5q3 -10 14 -19t23.5 -13t22.5 3t11 27q0 29 -5 182q-61 22 -108 69t-69 108zM710.5 582.5q-43.5 43.5 -100 63.5t-114.5 15l293 -293q5 58 -15 114.5t-63.5 100zM324.5 197q43.5 -43 99 -63.5t114.5 -16.5l-293 293q-4 -59 16 -114.5
t63.5 -98.5zM325 582q-53 -52 -72 -124l333 -332q72 18 124 71q52 51 71 122l-334 334q-71 -19 -122 -71z" />
    <glyph glyph-name="dizhi" unicode="&#xe60d;" 
d="M512.5 702q-67.5 0 -115.5 -47t-48 -113t48 -113.5t115.5 -47.5t115.5 47.5t48 113.5t-48 113t-115.5 47zM512.5 453q-37.5 0 -64 26t-26.5 63t26.5 63t64 26t64 -26t26.5 -63t-26.5 -63t-64 -26zM895 518q0 102 -51 188.5t-139.5 137t-192 50.5t-192 -50.5t-139.5 -137
t-51 -188.5q0 -57 36.5 -144t96 -181.5t107 -163.5t97.5 -134q17 -23 45.5 -23t45.5 23q50 65 97.5 134t107 163.5t96 181.5t36.5 144zM518 -48l-6 -8l-6 8q-143 190 -226.5 342.5t-83.5 223.5q0 129 93 220t223.5 91t223.5 -91t93 -220q0 -71 -83.5 -223.5t-227.5 -342.5v0
z" />
    <glyph glyph-name="dianhua" unicode="&#xe61f;" 
d="M755 -53q-74 0 -154.5 25.5t-155.5 70.5t-142.5 109.5t-118 138.5t-80 161.5t-29.5 175.5q0 80 56.5 136.5t136.5 56.5t136.5 -56.5t56.5 -136.5q0 -48 -22.5 -90.5t-62.5 -69.5q8 -87 69.5 -150t147.5 -74q27 42 70 65.5t93 23.5q80 0 136.5 -56.5t56.5 -136.5
t-56.5 -136.5t-136.5 -56.5h-1v0v0zM268 756q-53 0 -90.5 -37.5t-37.5 -90.5q0 -77 27 -155.5t72.5 -145.5t107.5 -125.5t129.5 -100t140 -65.5t138.5 -24h1q53 0 90.5 37.5t37.5 90.5t-37.5 90.5t-90.5 37.5q-37 0 -68 -19.5t-47 -53.5l-9 -19l-22 1q-124 6 -211 95
t-90 213v20l18 10q32 16 50.5 46.5t18.5 66.5q0 53 -37.5 90.5t-90.5 37.5v0zM268 756z" />
    <glyph glyph-name="saoyisaoerweima" unicode="&#xe63b;" 
d="M957 -68h-275v-60h335v328h-60v-268zM63 200h-60v-328h334v60h-274v268zM682 886v-60h275v-268h60v328h-335zM63 826h274v60h-334v-328h60v268zM222 399h284v285h-284v-285zM282 624h164v-165h-164v165zM825 361h-284v-284h284v284zM765 137h-164v164h164v-164zM763 682
h60v-283h-60v283zM543 682h112v-112h-112v112zM543 515h112v-112h-112v112zM445 358h60v-282h-60v282zM225 358h112v-112h-112v112zM225 192h112v-113h-112v113z" />
    <glyph glyph-name="p-password" unicode="&#xe67a;" 
d="M755 619h-52q0 88 -60.5 150t-146 62t-146 -62t-60.5 -150h-53q0 109 76 186.5t183.5 77.5t183 -77.5t75.5 -186.5v0zM833 -101h-673q-34 0 -58 25t-24 60v520q0 35 24 60t58 25h673q34 0 58 -25t24 -60v-520q0 -35 -24 -60t-58 -25v0zM160 537q-12 0 -21 -10t-9 -23
v-520q0 -13 9 -22.5t21 -9.5h673q12 0 21 9.5t9 22.5v520q0 13 -9 23t-21 10h-673zM237 619h53v-56h-53v56zM703 619h52v-56h-52v56zM496 133q-46 0 -78.5 32.5t-32.5 78.5t32.5 78.5t78.5 32.5t79 -32.5t33 -78.5t-33 -78.5t-79 -32.5v0zM496 303q-24 0 -41 -17t-17 -41.5
t17 -42t41.5 -17.5t41.5 17.5t17 42t-17 41.5t-42 17v0zM496 303z" />
    <glyph glyph-name="xiazai-copy" unicode="&#xe613;" 
d="M837.5 430q-19.5 0 -33 -13.5t-13.5 -32.5v-279h-557v279q0 19 -13.5 32.5t-33 13.5t-33 -13.5t-13.5 -32.5v-325q0 -19 13.5 -33t33.5 -14h649q20 0 33.5 14t13.5 33v325q0 19 -13.5 32.5t-33 13.5zM559 430v284q0 17 -13.5 29t-33 12t-33 -12t-13.5 -29v-284h-139
l185 -186l186 186h-139z" />
    <glyph glyph-name="turnleft" unicode="&#xe72d;" 
d="M281 410q-11 -11 -11 -26t10 -26v0l410 -410q0 -1 1 -1v0v0q11 -11 26 -11q16 0 27 11t11 27q0 15 -11 26v0v0h-1l-383 384l384 384q11 11 11 26.5t-11 26.5t-27 11t-27 -13zM281 410z" />
    <glyph glyph-name="iconfontshanchu" unicode="&#xe607;" 
d="M513.5 892q-103.5 0 -197.5 -40.5t-162.5 -109t-109 -162.5t-40.5 -197.5t40.5 -197.5t109 -162.5t162.5 -109t197.5 -40.5t197.5 40.5t162.5 109t109 162.5t40.5 197.5t-40.5 197.5t-109 162.5t-162.5 109t-197.5 40.5zM768 192l-64 -64l-191 191l-191 -191l-63 64
l191 191l-191 191l63 63l191 -191l191 191l64 -63l-191 -191z" />
    <glyph glyph-name="riqi" unicode="&#xe69c;" 
d="M853 384h-113v-114h113v114zM284 896h-56v-171h56v171zM569 384h-114v-114h114v114zM683 839h-342v-57h342v57zM284 384h-113v-114h113v114zM967 839h-114v-57h57q24 0 40.5 -16.5t16.5 -40.5v-170h-910v170q0 24 16.5 40.5t40.5 16.5h57v57h-114q-24 0 -40.5 -16.5
t-16.5 -40.5v-853q0 -24 16.5 -40.5t40.5 -16.5h910q24 0 40.5 16.5t16.5 40.5v853q0 24 -16.5 40.5t-40.5 16.5zM967 -14q0 -24 -16.5 -40.5t-40.5 -16.5h-796q-24 0 -40.5 16.5t-16.5 40.5v512h910v-512zM284 156h-113v-113h113v113zM569 156h-114v-113h114v113zM796 896
h-56v-171h56v171zM853 156h-113v-113h113v113z" />
    <glyph glyph-name="xinxi" unicode="&#xe605;" 
d="M512 858q-111 0 -207 -32.5t-162.5 -88.5t-104.5 -132.5t-38 -161.5q0 -114 54 -204t164 -144v-185l261 121q5 0 16.5 -1.5t16.5 -1.5q111 0 207 32.5t162.5 88.5t104.5 132t38 161.5t-38 162t-104.5 132.5t-162.5 88.5t-207 32.5zM256 371q-33 0 -55 22t-22 55t22 55
t55 22t55 -22t22 -55t-22 -55t-55 -22zM512 371q-33 0 -55 22t-22 55t22 55t55 22t55 -22t22 -55t-22 -55t-55 -22zM768 371q-33 0 -55 22t-22 55t22 55t55 22t55 -22t22 -55t-22 -55t-55 -22z" />
    <glyph glyph-name="jiahao" unicode="&#xe62a;" 
d="M965 443h-394v394q0 24 -17.5 41.5t-42 17.5t-41.5 -17t-17 -42v-394h-394q-24 0 -41.5 -17.5t-17.5 -41.5t17 -41.5t42 -17.5h394v-394q0 -24 17.5 -41.5t41.5 -17.5t41.5 17t17.5 42v394h394q24 0 41.5 17.5t17.5 42t-17.5 41.5t-41.5 17v0zM965 443z" />
    <glyph glyph-name="shuichan" unicode="&#xe63c;" 
d="M992 477q-15 10 -35 -3l-135 -106q-20 27 -44.5 54.5t-63.5 63t-92 64.5t-110 45q-9 52 13 96q10 16 0 32q-7 13 -26 13q-54 0 -104 -34t-85 -84q55 -58 90 -142t35 -156q0 -71 -21 -149t-65 -136q16 -3 51 -3q65 0 126.5 19t105.5 45t85 62t63.5 61.5t41.5 52.5
l131 -106q13 -6 20 -6q9 0 12 3q20 13 20 29v256q9 18 -13 29zM371 320q0 62 -32 135t-80 121q-42 -20 -82 -52t-66 -61t-49 -60.5t-31 -45.5l-12 -21q-4 -14 0 -29q2 -5 12.5 -23.5t34 -50.5t52.5 -64t73 -63t91 -48q46 46 67.5 119t21.5 143z" />
    <glyph glyph-name="f-plus" unicode="&#xe60b;" 
d="M3 893v-1018h1018v1018h-1018zM949 -53h-874v874h874v-874zM185 420h654v-72h-654v72zM540 704v-655h-73v655h73z" />
    <glyph glyph-name="zhifuchenggongchenggongicon" unicode="&#xe636;" 
d="M504.5 -127q-102.5 0 -196.5 39q-90 38 -159.5 108t-108.5 160q-39 94 -39 196t39 196q39 90 108.5 160t159.5 108q94 40 196 40q99 0 190 -37t162 -107q9 -9 9.5 -22t-9 -22t-22.5 -9.5t-22 8.5q-62 61 -141.5 93.5t-166.5 32.5q-89 0 -170.5 -35t-140.5 -94t-94 -140.5
t-35 -171t35 -171.5t94 -141t140.5 -93.5t171 -34.5t171 34.5t140.5 93.5t94 141t35 171q0 39 -7 78q-2 13 5.5 23.5t20 13t23.5 -5t13 -20.5q8 -44 8 -89q0 -102 -40 -196q-38 -90 -107.5 -160t-160.5 -108q-93 -39 -195.5 -39zM443 92q-13 0 -22 9l-224 223q-9 10 -9 23
t9 22t22.5 9t22.5 -9l201 -201l448 448q9 9 22 9t22.5 -9t9.5 -22t-9 -23l-471 -470q-9 -9 -22 -9z" />
    <glyph glyph-name="zhifushibaishibaiicon" unicode="&#xe637;" 
d="M504.5 -127q-102.5 0 -196.5 39q-90 38 -159.5 108t-108.5 160q-39 94 -39 196t39 196q39 90 108.5 160t159.5 108q94 40 196 40q99 0 190 -37t162 -107q9 -9 9.5 -22t-9 -22t-22.5 -9.5t-22 8.5q-62 61 -141.5 93.5t-166.5 32.5q-89 0 -170.5 -35t-140.5 -94t-94 -140.5
t-35 -171t35 -171.5t94 -141t140.5 -93.5t171 -34.5t171 34.5t140.5 93.5t94 141t35 171q0 39 -7 78q-2 13 5.5 23.5t20 13t23.5 -5t13 -20.5q8 -44 8 -89q0 -102 -40 -196q-38 -90 -107.5 -160t-160.5 -108q-93 -39 -195.5 -39zM693 156q-13 0 -22 9l-377 377
q-10 10 -10 23t9.5 22t22.5 9t22 -9l378 -378q9 -9 9 -22t-9.5 -22t-22.5 -9zM316 156q-13 0 -22.5 9t-9.5 22t10 22l377 378q9 9 22 9t22.5 -9t9.5 -22t-9 -23l-378 -377q-9 -9 -22 -9z" />
    <glyph glyph-name="kefu" unicode="&#xe63a;" 
d="M957 94h-156q-14 0 -24 9.5t-10 23.5v398q-2 103 -76 174t-179 72q-105 -1 -178.5 -71.5t-75.5 -174.5v-345q1 -6 4.5 -16t17 -35t29 -43t41.5 -31t55 -8q5 18 21 27t33 9h109q28 0 47.5 -19.5t19.5 -47.5v-21q0 -28 -19.5 -48t-47.5 -20h-101q-21 0 -38 12t-24 31
q-1 1 -5 1t-11 0.5t-13 1.5q-28 10 -54 26.5t-42 32t-28 30t-18 23.5l-5 9q-3 -1 -5 -1h-156q-14 0 -24 10t-10 24v346q0 14 10 24t24 10h111v18v0v0q1 66 20 119.5t46.5 86t65 57t68.5 36t64 17.5t45 7t19 1h5.5h5.5q7 0 18.5 -0.5t45 -7t64.5 -18t68.5 -36t64.5 -57
t46 -86t20 -119.5v-1v-17h111q14 0 24 -10t10 -24v-346q0 -14 -9.5 -23.5t-23.5 -9.5zM186 408q0 9 -4 15t-9 6h-58q-6 0 -10 -6t-4 -15v-213q0 -9 4 -15t10 -6h58q5 0 9 6t4 15v213zM923 408q0 9 -4 15t-10 6h-57q-6 0 -10 -6.5t-4 -14.5v-213q0 -9 4 -15t10 -6h57
q6 0 10 6t4 15v213z" />
    <glyph glyph-name="warning" unicode="&#xe60a;" 
d="M516 116q-20 0 -34.5 14t-14.5 34.5t14.5 35t35 14.5t35 -14.5t14.5 -35t-14.5 -34.5t-35.5 -14v0zM516 279q-17 0 -29 12t-12 29v307q0 17 12 29t29 12t29.5 -12t12.5 -29v-307q0 -17 -12.5 -29t-29.5 -12zM516.5 863q-97.5 0 -186 -38t-152.5 -102t-102 -152.5
t-38 -185.5t38 -185.5t102 -152.5t152.5 -102t186 -38t186 38t152.5 102t102 152.5t38 185.5t-38 185.5t-102 152.5t-152.5 102t-186 38zM516.5 -29q-112.5 0 -208 55.5t-151 151t-55.5 207.5t55.5 207.5t151 151t208 55.5t208 -55.5t151 -151t55.5 -207.5t-55.5 -207.5
t-151 -151t-208 -55.5z" />
    <glyph glyph-name="riqi1" unicode="&#xe654;" 
d="M307 820q0 10 7.5 17.5t17.5 7.5q11 0 18.5 -7.5t7.5 -17.5v-155q0 -10 -7.5 -17.5t-18.5 -7.5q-10 0 -17.5 7.5t-7.5 17.5v155zM665 820q0 10 7.5 17.5t18.5 7.5q10 0 17.5 -7.5t7.5 -17.5v-155q0 -10 -7.5 -17.5t-17.5 -7.5q-11 0 -18.5 7.5t-7.5 17.5v155zM409 794
h205v-52h-205v52zM768 794v-52h153v-153h-819v153h154v52h-154q-19 0 -35 -16t-16 -36q-2 -683 0 -716q1 -24 16 -38t35 -14h819q3 0 6.5 0.5t12.5 3.5t15.5 7.5t11.5 15t5 25.5v716q0 20 -16 36t-35 16h-153zM102 538h819v-512h-819v512z" />
    <glyph glyph-name="diaoweipin" unicode="&#xe61e;" 
d="M839 401l-66 129h-1v53h23v71h-201v-71h20v-55l-65 -127v-496h291v496h-1zM812 29h-241v251h241v-251zM582 550l-91 176h-1v73h31v97h-275v-97h27v-76l-89 -173v-678h398v678v0zM544 41h-330v343h330v-343z" />
    <glyph glyph-name="8shucai" unicode="&#xe602;" 
d="M343 38q-10 -2 -34 -8t-42 -8.5t-34 -1.5q-25 3 -50.5 15t-39.5 29q-27 35 -23.5 73.5t36.5 68.5q62 54 124 80q196 81 444 -14q-201 -70 -382 -235l1 1v0zM818 642q154 -30 169 -147q14 -106 -66 -143q-11 78 -59.5 110t-107.5 8q-7 9 -24 30t-29.5 36t-25.5 28
q-34 34 -61 39q-45 9 -68.5 30.5t-31.5 66.5q-8 44 10.5 71t57.5 15q19 -5 42 -10t39 -8t43.5 -7.5t40.5 -6.5q37 -6 55.5 -37t15.5 -75zM473 598q104 20 190 -55q-29 -3 -55.5 -15t-41 -24t-39.5 -36t-36 -33q-1 -1 -8 -7t-9 -7.5t-8.5 -6t-9.5 -5.5l-9 -3t-10 0t-9.5 4.5
t-10.5 8t-10 14.5q-5 7 -29 4q-37 -6 -58 13t-21 56q1 26 -15 44q-59 65 -18 136q22 38 61.5 55.5t83.5 8.5q38 -8 66 -38t27 -64q0 -8 -5 -16t-14 -18.5t-12 -15.5zM568 185q100 41 199 81q2 5 4 12q-38 15 -152 56q117 90 128 99q16 13 29 19.5t31 8.5t35 -9
q63 -35 57 -92q-4 -31 4.5 -57.5t28.5 -62.5q26 -46 21 -93q-2 -34 -22.5 -41.5t-51.5 9.5q-18 11 -47 13q-19 2 -47 9.5t-47 12.5t-48 6.5t-50 -8.5q-8 -3 -19.5 0t-27.5 11t-24 10v5.5v5.5t-1 5zM580 494q-17 -110 -111 -138q-21 -6 -75.5 -19t-82.5 -23q-83 -30 -137 -69
q-14 -10 -26.5 -25t-29.5 -37.5t-26 -34.5q-44 -1 -54.5 25.5t13.5 67.5q5 10 12.5 19t14 15.5t19.5 16t18.5 13.5t21 14.5t19.5 13.5q21 14 46 28.5t60.5 34.5t54.5 31q6 -2 28.5 -11t42.5 -15.5t40 -9.5q25 -4 70 29q13 10 26.5 22t30.5 28.5t25 23.5zM598 68
q-21 -20 -44 -20t-41 11t-42 18.5t-44 0.5q-1 3 -5 11q91 60 107 69q7 2 10 1t12 -4.5t13 -3.5q9 -3 28.5 -10.5t34 -11t25.5 -0.5q22 8 50 6t47.5 -7.5t46.5 -12t47 -7.5q28 -1 33.5 -17t-14.5 -35q-32 -31 -64 -32q-67 -3 -170 8q-4 0 -8.5 5.5t-11 15.5t-10.5 15z
M524 347q8 13 27.5 46.5t34 56t30.5 41.5q8 11 31 15.5t36 -1.5q24 -11 28 -34.5t-12 -45.5q-55 -82 -175 -78zM342 37q12 5 39.5 16t45.5 19q-42 -48 -104.5 -73.5t-114.5 -19t-67 44.5q40 -12 71 -16.5t66.5 2.5t64.5 28l-1 -1v0zM50 137q81 -34 66 -119q-43 78 -66 119z
" />
    <glyph glyph-name="cailanzi" unicode="&#xe604;" 
d="M910 502h-115l-197 234q8 12 8 25q0 20 -14 33.5t-33 13.5t-32.5 -13.5t-13.5 -33.5t13.5 -33.5t32.5 -13.5q5 0 11 1l179 -213h-474l180 213q7 -1 10 -1q20 0 33.5 13.5t13.5 33.5t-13.5 33.5t-33 13.5t-33 -13.5t-13.5 -33.5q0 -14 7 -25l-196 -234h-115
q-25 0 -42 -17.5t-17 -42t17 -41.5t42 -17h2l22 -283q4 -59 48.5 -100t103.5 -41h444q58 0 102.5 41t49.5 100l21 283h2q25 0 42 17t17 41.5t-17.5 42t-41.5 17.5z" />
    <glyph glyph-name="yangshengicon" unicode="&#xe616;" 
d="M509 246q-25 0 -50 12l-1 1q-188 106 -265 241q-48 82 -51 169q-1 14 0 24q5 84 67 140t144 51q86 -4 141 -71q1 -1 2 -1v-1q9 -8 17 -18q30 37 73 58l-58 -41l3 3q56 67 141 71q82 5 144 -51t67 -140q1 -10 0 -24q-3 -87 -51 -170q-78 -135 -267 -242h-1h-1
q-30 -11 -54 -11v0zM471 282q20 -9 38 -9t44 8q145 83 222.5 182t80.5 207v1q1 12 0 20q-4 73 -57.5 121.5t-125.5 44.5q-73 -4 -122 -62l-1 -1v0l-2 -2q-10 -11 -23 -17q0 -3 -4.5 -12t-11 -23.5t-10.5 -26.5l14 33l-12 17q-11 16 -23 29q-5 4 -8 11l5 -9v0v1h-1
q-48 58 -122 62q-72 4 -125.5 -44.5t-57.5 -121.5q-1 -8 0 -20v-1q3 -108 80 -206.5t222 -181.5zM509 246q-25 0 -50 12l-1 1q-188 106 -265 241q-48 82 -51 169q-1 14 0 24q5 84 67 140t144 51q86 -4 141 -71q1 -1 2 -1v-1q9 -8 17 -18q30 37 73 58l-58 -41l3 3
q56 67 141 71q82 5 144 -51t67 -140q1 -10 0 -24q-3 -87 -51 -170q-78 -135 -267 -242h-1h-1q-30 -11 -54 -11v0zM471 282q20 -9 38 -9t44 8q145 83 222.5 182t80.5 207v1q1 12 0 20q-4 73 -57.5 121.5t-125.5 44.5q-73 -4 -122 -62l-1 -1v0l-2 -2q-10 -11 -23 -17
q0 -3 -4.5 -12t-11 -23.5t-10.5 -26.5l14 33l-12 17q-11 16 -23 29q-5 4 -8 11l5 -9v0v1h-1q-48 58 -122 62q-72 4 -125.5 -44.5t-57.5 -121.5q-1 -8 0 -20v-1q3 -108 80 -206.5t222 -181.5zM509 246q-25 0 -50 12l-1 1q-188 106 -265 241q-48 82 -51 169q-1 14 0 24
q5 84 67 140t144 51q86 -4 141 -71q1 -1 2 -1v-1q9 -8 17 -18q30 37 73 58l-58 -41l3 3q56 67 141 71q82 5 144 -51t67 -140q1 -10 0 -24q-3 -87 -51 -170q-78 -135 -267 -242h-1h-1q-30 -11 -54 -11v0zM471 282q20 -9 38 -9t44 8q145 83 222.5 182t80.5 207v1q1 12 0 20
q-4 73 -57.5 121.5t-125.5 44.5q-73 -4 -122 -62l-1 -1v0l-2 -2q-10 -11 -23 -17q0 -3 -4.5 -12t-11 -23.5t-10.5 -26.5l14 33l-12 17q-11 16 -23 29q-5 4 -8 11l5 -9v0v1h-1q-48 58 -122 62q-72 4 -125.5 -44.5t-57.5 -121.5q-1 -8 0 -20v-1q3 -108 80 -206.5t222 -181.5z
M509 246q-25 0 -50 12l-1 1q-188 106 -265 241q-48 82 -51 169q-1 14 0 24q5 84 67 140t144 51q86 -4 141 -71q1 -1 2 -1v-1q9 -8 17 -18q30 37 73 58l-58 -41l3 3q56 67 141 71q82 5 144 -51t67 -140q1 -10 0 -24q-3 -87 -51 -170q-78 -135 -267 -242h-1h-1
q-30 -11 -54 -11v0zM471 282q20 -9 38 -9t44 8q145 83 222.5 182t80.5 207v1q1 12 0 20q-4 73 -57.5 121.5t-125.5 44.5q-73 -4 -122 -62l-1 -1v0l-2 -2q-10 -11 -23 -17q0 -3 -4.5 -12t-11 -23.5t-10.5 -26.5l14 33l-12 17q-11 16 -23 29q-5 4 -8 11l5 -9v0v1h-1
q-48 58 -122 62q-72 4 -125.5 -44.5t-57.5 -121.5q-1 -8 0 -20v-1q3 -108 80 -206.5t222 -181.5zM509 246q-25 0 -50 12l-1 1q-188 106 -265 241q-48 82 -51 169q-1 14 0 24q5 84 67 140t144 51q86 -4 141 -71q1 -1 2 -1v-1q9 -8 17 -18q30 37 73 58l-58 -41l3 3
q56 67 141 71q82 5 144 -51t67 -140q1 -10 0 -24q-3 -87 -51 -170q-78 -135 -267 -242h-1h-1q-30 -11 -54 -11v0zM471 282q20 -9 38 -9t44 8q145 83 222.5 182t80.5 207v1q1 12 0 20q-4 73 -57.5 121.5t-125.5 44.5q-73 -4 -122 -62l-1 -1v0l-2 -2q-10 -11 -23 -17
q0 -3 -4.5 -12t-11 -23.5t-10.5 -26.5l14 33l-12 17q-11 16 -23 29q-5 4 -8 11l5 -9v0v1h-1q-48 58 -122 62q-72 4 -125.5 -44.5t-57.5 -121.5q-1 -8 0 -20v-1q3 -108 80 -206.5t222 -181.5zM558 269q59 34 107.5 70.5t80 68.5t55 66.5t36 61t20.5 55t10 45t3 34.5v22
q-5 78 -62.5 130.5t-134.5 48.5q-80 -5 -132 -67l-3 -3t-2 -3q-35 -34 -49 -81q11 50 10 62.5t-10 21.5l-1.5 1.5t-0.5 1.5q-53 62 -132 67q-78 4 -135.5 -48.5t-62.5 -130.5v-22q1 -18 3 -34.5t10 -44.5t20.5 -54.5t36 -61t54.5 -66.5t79 -68.5t107 -70.5q22 -11 44 -11
q10 0 22.5 2.5t19.5 5.5zM509 246q-25 0 -50 12l-1 1q-188 106 -265 241q-48 82 -51 169q-1 14 0 24q5 84 67 140t144 51q86 -4 141 -71q1 -1 2 -1v-1q9 -8 17 -18q30 37 73 58l-58 -41l3 3q56 67 141 71q82 5 144 -51t67 -140q1 -10 0 -24q-3 -87 -51 -170
q-78 -135 -267 -242h-1h-1q-30 -11 -54 -11v0zM471 282q20 -9 38 -9t44 8q145 83 222.5 182t80.5 207v1q1 12 0 20q-4 73 -57.5 121.5t-125.5 44.5q-73 -4 -122 -62l-1 -1v0l-2 -2q-10 -11 -23 -17q0 -3 -4.5 -12t-11 -23.5t-10.5 -26.5l14 33l-12 17q-11 16 -23 29
q-5 4 -8 11l5 -9v0v1h-1q-48 58 -122 62q-72 4 -125.5 -44.5t-57.5 -121.5q-1 -8 0 -20v-1q3 -108 80 -206.5t222 -181.5zM413 -115q-11 0 -23 1q-82 10 -156 84q-39 40 -66 85.5t-38.5 87.5t-15.5 70.5t-4 54.5q0 13 10 22.5t23 9.5v0q25 0 53.5 -4t70.5 -15.5t87.5 -38
t84.5 -65.5q74 -75 85 -156q7 -52 -13 -97q-7 -17 -24 -24q-34 -15 -74 -15zM143 273q-2 0 -4 -2t-2 -3q0 -24 4 -51t14.5 -66.5t35.5 -82t62 -78.5q78 -79 160 -79q34 0 63 13q8 4 11 11q7 16 9.5 35.5t0.5 49t-21.5 66t-55.5 72.5q-37 36 -79.5 61t-81.5 36t-65.5 14.5
t-50.5 3.5v0zM487 -89v0q-6 0 -10 4l-178 178q-9 10 0.5 19.5t18.5 -0.5l178 -178q10 -10 0 -19q-4 -4 -9 -4v0zM611 -115q-40 0 -74 15q-17 7 -24 24q-20 45 -13 97q11 81 85 156q39 39 84.5 65.5t87.5 38t70.5 15.5t53.5 4v0q13 0 23 -9.5t10 -22.5q0 -26 -4 -54.5
t-15.5 -70.5t-38.5 -87.5t-66 -85.5q-74 -74 -156 -84q-11 -1 -23 -1v0zM881 273q-24 0 -50.5 -3.5t-65.5 -14.5t-81.5 -36t-79.5 -61q-36 -36 -55.5 -72.5t-21.5 -66t0.5 -49t9.5 -35.5q3 -7 11 -11q16 -7 35 -10t49 -1t66.5 21t72.5 56q37 36 62 78.5t35.5 82t14.5 66.5
t4 51q0 1 -2 3t-4 2zM537 -89v0q-5 0 -9 4q-10 9 0 19l172 172q9 9 18.5 -0.5t0.5 -18.5l-172 -172q-4 -4 -10 -4v0z" />
    <glyph glyph-name="duigou" unicode="&#xe618;" 
d="M218 572l-181 -182l380 -380l573 573l-182 182l-391 -391z" />
    <glyph glyph-name="zhuoyou-tuangou" unicode="&#xea16;" 
d="M712 44q-1 6 -1 13v464q0 35 -24 60t-58 25h-521q-34 0 -58 -25t-24 -60v-464q0 -7 -1 -13l-16 -66q-10 -42 16 -75q24 -31 63 -31h562q38 0 63 31q26 33 16 75zM685 -75q-14 -18 -35 -18h-562q-22 0 -36 18q-16 19 -10 45l17 66q2 10 2 21v0v464q0 21 14 35.5t33 14.5
h521q20 0 33.5 -14.5t13.5 -35.5v-464q0 -11 3 -21l16 -66q6 -26 -10 -45zM242 492v26q0 7 5 12t12.5 5t12.5 -5t5 -12v-26q0 -38 27 -65t65 -27t65 27t27 65v26q0 7 5 12t12 5t12 -5t5 -12v-26q0 -52 -37 -89t-89.5 -37t-89.5 37t-37 89zM19 751q-9 32 8 60q6 12 20 22.5
t27 13.5l170 46q11 3 21 3q21 0 39 -11q12 -7 22.5 -20.5t14.5 -26.5l51 -192v-4q0 -7 -5 -12t-12 -5q-13 0 -17 13l-51 191q-4 17 -20 26q-10 6 -22 6q-6 0 -12 -1l-170 -46q-17 -5 -26 -20q-6 -11 -6 -22q0 -6 1 -12l36 -124q1 -2 1 -4q0 -8 -5 -13t-13 -5q-13 0 -16 13z
M337 879q0 7 5 12t12 5h111q32 0 55 -23t23 -56v-176q0 -7 -5 -12t-12 -5t-12 5t-5 12v176q0 19 -13 31.5t-31 12.5h-111q-7 0 -12 5.5t-5 12.5zM547 868q3 13 16 13q3 0 5 -1l87 -23q13 -4 27 -14.5t21 -22.5q10 -18 10 -39q0 -11 -2 -21l-37 -136q-3 -12 -17 -12v0
q-7 0 -12 5t-5 12q0 2 1 4l36 136q2 6 2 12q0 12 -6 22q-9 16 -27 20l-87 24q-13 3 -13 16q0 3 1 5zM1001 -72q-25 -32 -65 -32h-155q-7 0 -12 5t-5 12.5t5 12.5t12 5h155v0q23 0 37 18q10 12 10 28q0 6 -1 12l-17 63q-2 10 -2 20v440q0 19 -14 32.5t-33 13.5h-46v-25
q0 -7 -5.5 -12t-12.5 -5t-12 5t-5 12v25h-86q-7 0 -12 5t-5 12.5t5 12.5t12 5h86q-2 36 -28 61.5t-63 25.5q-7 0 -12 5t-5 12.5t5 12.5t12 5q51 0 87.5 -35.5t38.5 -86.5h46q34 0 58 -24t24 -57v-440q0 -6 1 -12l16 -62q3 -10 3 -21q0 -27 -17 -49zM242 699q7 -5 7 -14
q0 -4 -1 -7l-11 -25q-5 -10 -16 -10q-6 0 -10 3l-22 16q-7 6 -7 14q0 4 1 7l11 25q5 11 16 11q6 0 10 -4zM520 253q2 31 -32 29h-239q-29 3 -26 -30v-237q-3 -36 30 -34h231q40 -2 36 32v240zM481 234v-35q-3 9 -15 9h-26v18q-2 13 -20 15q-19 -2 -20 -15v-18h-113
q-14 -2 -14 -18.5t14 -17.5h96q-51 -55 -103 -90q-18 -11 -4 -30q9 -13 33 0q46 29 91 80v-58q0 -10 -13 -10q-4 0 -9 2h-9q-16 0 -18 -17q-4 -26 46 -25q48 -4 43 39v109h29q8 0 12 7v-152q0 -10 -10 -10h-200q-11 -1 -9 10v205q-1 7 1.5 9.5t7.5 2.5h200q11 1 10 -10v0z
" />
    <glyph glyph-name="yingyong-diyubiaoqian" unicode="&#xe65d;" 
d="M512 -128v0q-7 0 -13 3t-28.5 26.5t-53.5 67.5t-90.5 136t-138.5 221q-21 37 -35.5 92.5t-14.5 97.5q0 103 50 190.5t136 138.5t188 51t188 -51t136 -138.5t50 -190.5v0q0 -42 -14.5 -97.5t-35.5 -91.5l-7 -11q-76 -126 -134.5 -216t-89 -133t-52.5 -66t-28 -26t-13 -3z
M512 669q-62 0 -106 -45t-44 -107.5t44 -107t106 -44.5t106 44.5t44 107t-44 107.5t-106 45z" />
    <glyph glyph-name="icon-" unicode="&#xe61d;" 
d="M307 486q-21 0 -36 -15t-15 -36t15 -36t36 -15t36 15t15 36t-15 36t-36 15zM512 486q-21 0 -36 -15t-15 -36t15 -36t36 -15t36 15t15 36t-15 36t-36 15zM819 768q-154 51 -307 128q-57 -34 -134.5 -66t-123.5 -47t-49 -15q-38 -14 -57.5 -36t-19.5 -41v-486
q0 -42 46 -101.5t107.5 -109.5t127.5 -86t103 -36q38 0 103 35t127.5 84t108 109t45.5 105v486q0 18 -22.5 42t-54.5 35zM845 205q0 -35 -61.5 -103t-142.5 -123.5t-129 -55.5t-129 55.5t-142.5 123.5t-61.5 103v461q0 28 51 51q180 69 282 128q46 -26 116 -58t118 -51
l48 -19q51 -23 51 -51v-461zM717 486q-21 0 -36 -15t-15 -36t15 -36t36 -15t36 15t15 36t-15 36t-36 15z" />
    <glyph glyph-name="guochanshuiguo" unicode="&#xe600;" 
d="M657 650q-87 0 -159.5 -45.5t-111.5 -120.5q29 -7 49 -16q52 -22 91 -62q40 -40 62 -92q22 -53 22 -113q0 -57 -22 -113q-9 -22 -20 -38q42 -13 88 -13q126 0 215.5 89.5t89.5 216.5t-89 217t-215 90zM430 816q0 -38 18 -71.5t50.5 -55t71 -24.5t71.5 12q-1 37 -19 71
t-50 55t-70.5 24.5t-71.5 -11.5zM674 676q48 -20 92 9t44 81q-49 21 -92 -8q-44 -31 -44 -82zM363 178l98 -117q12 11 25 29q23 34 30 75q-62 5 -113 9q-10 1 -23 2t-17 2zM128 200q0 -59 35 -111l115 97zM322 398q-63 -2 -112 -37l98 -118zM366 214l16 -2l136 -12
q0 64 -35 114q-42 -36 -107 -92q-6 -6 -10 -8zM323 -60q68 0 125.5 32.5t93.5 87.5q41 64 41 142q0 94 -59 166t-150 90q-25 5 -51 5q-108 0 -184 -76.5t-76 -184.5q0 -109 76 -185.5t184 -76.5zM323 429q15 0 40 -3q80 -15 133 -78t53 -146q0 -68 -39 -127q-31 -46 -80 -73
t-107 -27q-93 0 -159 66.5t-66 160.5t66 160.5t159 66.5zM287 8l13 151l-115 -97q43 -43 102 -54zM183 338q-42 -44 -53 -104l151 -13zM433 38l-98 118l-13 -151q60 0 111 33zM462 341q-45 44 -105 54v-3l-5 -43l-10 -108q17 14 21 17q89 75 99 83z" />
    <glyph glyph-name="liangyoufushi" unicode="&#xe601;" 
d="M492 370q-3 -11 -3 -18q1 7 3 18zM314 370l4 -18q-1 7 -4 18zM585 -11h-14.5h-11.5h-19q-9 0 -14 6q-7 8 -4 27q7 50 -9 93q-10 25 -8 69q2 34 -4 51q-12 36 -38 73.5t-43 51.5q-6 5 -10 10q-3 3 -16 11q-2 2 -10 5q-29 11 -29 32q1 64 16 110v0q14 42 27 68q10 20 29 52
q0 1 1.5 3.5t2.5 3.5q1 13 4 21q11 21 35 51q5 5 22 23h-6v48h13v26h13v39h141v-39h13v-26h13v-48h-2q25 -22 34 -31q33 -31 41 -54q4 -11 4 -25q36 -22 56 -68q14 -31 21 -73q8 -50 8 -114v-2q0 -39 -8 -62q-4 -11 -14 -21q19 -32 19 -54v-171q0 -37 -23 -56
q-25 -21 -73 -25q-80 -5 -157 -5zM526 23l16.5 0.5l16.5 0.5q94 -1 181 5q36 3 52 16q11 9 11 30v171q0 7 -6 21.5t-13 22.5v1l-1 1l-13 15l16 11q11 7 14 15q6 17 6 50v3q0 60 -8 107q-6 38 -18 65q-15 33 -39 50l-25 -19l4 39q2 17 -1 26q-5 14 -32 40q-5 4 -12 10.5
t-14 12.5t-13 11.5t-10 9l-4 3.5l-37 31h34v17h-13v39h-71v-39h-13v-17h29l-30 -30q-28 -28 -36 -37q-16 -20 -30 -45q-1 -1 -2 -8q0 -4 -1 -7v0l-7 -14q-18 -31 -27 -50q-12 -24 -26 -64v-1q-13 -40 -14 -95q1 -32 4 -34l14 -12t11.5 -11t6.5 -6q18 -16 28.5 -25.5
t30.5 -36.5t30 -55q5 -14 -2.5 -32.5t-7.5 -24.5q-1 -15 17 -62q5 -13 7.5 -25.5t2 -24t-1 -18.5t-2.5 -18t-2 -13v0zM745 318l-8 6q-12 8 -25 12h-2q-41 12 -54 30q-9 11 -10 91q-2 76 3 87t23 20q7 3 10 5q7 5 11 10l9 10l11 -6q9 -4 15 -8q17 -13 29 -34q17 -30 21 -79
q0 -3 1.5 -24t2 -47t-1.5 -36q-6 -21 -26 -32zM685 385q7 -7 34 -15l3 -1q11 -3 22 -9q1 1 2 4q1 10 0 43.5t-3 51.5q-3 42 -16 65q-7 13 -18 22q-4 -3 -7 -5q-6 -4 -16 -9q-3 -2 -5 -3q-1 -15 0 -72.5t4 -71.5zM587 -50q-1 12 -13.5 27t-20 20.5t-11.5 9.5v0l-1 2
q33 106 1 164l-2 4l26 8q4 2 6.5 5t2.5 5l1 2v80q-1 7 -5 10.5t-8 3.5h-3l-52 -13q-30 41 -57.5 70t-45 41.5t-30.5 19.5t-19 7h-6q-19 1 -42.5 -12.5t-44 -34t-38.5 -41t-28 -35.5l-10 -15l-51 12q-6 1 -10.5 -1.5t-5.5 -5.5l-1 -3v-78q0 -6 2 -9.5t3 -4.5l2 -1l29 -11
q-17 -27 -17 -69t7 -71t8 -28q-9 -7 -20 -18.5t-17 -19t-6 -8.5q-3 -14 0.5 -22t8.5 -8l5 -1q10 3 22 3.5t19 0.5l7 -1q45 -14 160 -24q28 -2 76.5 4t84.5 13t35 7q9 2 17.5 1.5t13.5 -1.5l6 -2q21 -4 22 18v0zM345 393q1 -1 2.5 0t8.5 -1.5l14 -5t19.5 -12t26 -21.5
t32 -33.5t38.5 -48.5q-16 -3 -42.5 -6t-99.5 -4t-135 10q3 5 9 13t23.5 28.5t33.5 36.5t35.5 29.5t34.5 14.5zM352 327.5q0 -7.5 5 -13t13 -5.5t13.5 5.5t5.5 13t-5.5 13t-13.5 5.5t-13 -5.5t-5 -13zM400 290.5q0 -7.5 5.5 -13t13.5 -5.5t13 5.5t5 13t-5 13t-13 5.5
t-13.5 -5.5t-5.5 -13z" />
    <glyph glyph-name="huopinmingcheng" unicode="&#xe6ec;" 
d="M943 617l-436 217l-437 -217v-435l437 -217l436 217v435zM507 782l328 -165l-125 -62l-330 163zM323 688l334 -161l-151 -72l-328 162l145 71v0zM124 562v0v28l355 -177v-380l-355 176v353zM889 536v-327l-355 -176v380l355 177v-54v0z" />
    <glyph glyph-name="hezuoyewu" unicode="&#xe6de;" 
d="M902 428q-5 6 -15 17.5t-15 16.5q-106 120 -211 240q-58 66 -138 85q-86 21 -168 -25q-73 -41 -140 -120q-11 -14 -36 -47q-19 -27 -48 -11q-13 7 -18 20t1 26q5 15 17 24q74 95 167 158q62 43 121 56q40 10 89 3q88 -11 161 -70q21 -18 67 -70q138 -156 276 -313
q22 -25 3 -45q-9 -9 -21 -10q-170 -47 -344 -94q-229 -61 -253 -68q-20 -5 -34 4t-18 24q-6 19 3 35.5t27 21.5l214 58l306 82q1 0 7 2zM124 329l7 -8q117 -133 233 -266q59 -66 139 -85q85 -20 168 26q71 40 137 118q14 16 37 48q20 27 48 12q14 -7 19 -20t-1 -27
q-5 -14 -15 -22q-84 -105 -183 -169q-53 -34 -104 -46q-41 -11 -93 -4q-79 10 -147 60q-29 22 -74 73q-141 161 -283 321q-20 23 -2 43q8 9 19 10q108 30 221 61q190 51 379 102q18 5 32 -2.5t19 -25.5t-3 -34.5t-25 -21.5q-24 -6 -178 -48l-342 -92q-2 -1 -4.5 -1.5
t-3.5 -1.5z" />
    <glyph glyph-name="helpeye" unicode="&#xe608;" 
d="M1005 384q0 -29 -22.5 -67.5t-67.5 -78.5t-103.5 -74t-137.5 -56t-162 -22q-81 0 -159.5 21.5t-137 55.5t-104 74t-69 78.5t-23.5 68.5t23.5 68.5t69 78.5t104.5 74t137 55t159 21q84 0 163 -21t137.5 -55t103 -74t67.5 -78.5t22 -68.5zM512.5 627q-98.5 0 -168 -71
t-69.5 -172t69.5 -172t168 -71t168 71t69.5 172t-69.5 172t-168 71zM512 539q-63 0 -107 -45.5t-44 -109.5t44 -109.5t107 -45.5t107 45.5t44 109.5t-44 109.5t-107 45.5z" />
    <glyph glyph-name="biyan" unicode="&#xe703;" 
d="M1001 521q8 12 6 26t-13 23q-12 10 -26 7.5t-24 -14.5v0q-13 -14 -29 -31t-63 -56.5t-94 -69t-114.5 -53t-131.5 -23.5q-62 0 -129 24t-114.5 53.5t-95.5 69.5t-65 57t-29 31h-1q-9 11 -24 12t-25.5 -8.5t-11.5 -24t8 -25.5q3 -4 15.5 -17.5t40 -39t58.5 -49.5l-91 -94
q-10 -11 -9.5 -25.5t11.5 -24.5q5 -10 21 -10q14 0 25 10l97 101q78 -53 162 -83l-38 -126q-4 -14 3.5 -27t21.5 -17h11q12 0 21.5 7.5t11.5 19.5l38 125q47 -8 88 -8t89 8l37 -124q2 -11 12 -18.5t22 -7.5q7 0 8 2q15 4 22 16.5t3 27.5l-37 124q83 29 161 83l96 -99
q10 -11 24.5 -11t25 10.5t11 25t-9.5 25.5l-90 93q32 24 61 50t41 41z" />
    <glyph glyph-name="shuxian" unicode="&#xe627;" 
d="M502 887h16v-1007h-16v1007z" />
    <glyph glyph-name="shouqi" unicode="&#xe60c;" 
d="M0 896v-1024h1024v1024h-1024zM951 -55h-878v878h878v-878zM183 421h658v-74h-658v74z" />
    <glyph glyph-name="rouqindanlei" unicode="&#xe60e;" 
d="M502 -63q-191 0 -330 23t-150 57h961q-12 -34 -151 -57t-330 -23zM779 -71h-540v39h540v-39v0zM596 537q-4 0 -10.5 4.5t-13.5 13.5t-10 20t3.5 25.5t23.5 28.5q29 33 7 75q30 -13 38 -28t0.5 -31.5t-18.5 -32.5t-18.5 -36.5t-1.5 -38.5zM443 645q-3 0 -8.5 3.5
t-10.5 10.5t-7.5 15.5t2.5 20t18 22.5q23 26 6 59q23 -10 29.5 -22t0.5 -24.5t-14.5 -25.5t-14.5 -29t-1 -30zM526 586q-4 0 -13.5 7t-18 20t-11.5 29t7.5 37.5t35.5 42.5q37 43 1 113q44 -19 56.5 -41.5t1.5 -47t-27.5 -48.5t-28 -54.5t-3.5 -57.5zM121 393q12 13 28 31.5
t28.5 31.5t28.5 26q43 35 91.5 49.5t98 7.5t98.5 -45.5t87 -105.5q2 -12 -7 -22t-21.5 -17.5t-25 -18.5t-18 -24.5t0.5 -36.5q3 -12 21.5 -21.5t30.5 4.5q21 46 45.5 74.5t48.5 41t49.5 20t51.5 15t50 21t49.5 43.5t47.5 78q7 19 15 28.5t18 5.5q14 -6 22 -28t13 -24
q8 -3 15 -6t17.5 -8t15 -11.5t0.5 -11.5q-6 -8 -46 -28q-40 -21 -62 -48.5t-27.5 -57t-4.5 -61.5t2.5 -66t-2 -65.5t-23 -64t-55.5 -58.5h-607q-144 90 -184 222q-6 22 3 66.5t25 59.5q7 7 25 2t31.5 -8.5t25.5 10.5v0z" />
  </font>
</defs>
</svg>
